# xmcd
#
# Track frame offsets:
#	150
#	10923
#	21691
#	33377
#	46157
#	58926
#	71550
#	83688
#	93955
#	105837
#	118440
#	130512
#	142385
#	154066
#	165654
#	175855
#	187878
#	199647
#	212803
#	223807
#	236448
#	252308
#	264648
#	277592
#	290100
#
# Disc length: 3996 seconds
#
# Revision: 1
# Processed by: cddbd v1.5.2PL0 Copyright (c) Steve Scherf et al.
# Submitted via: EZCDAudioConverter 4.0.0.1
#
DISCID=6f0f9a19
DTITLE=Boogie Woogie Gals - Boogie Woogie Gals CD1
DYEAR=1900
DGENRE=Blues Jazz Boogie
TTITLE0=Hadda Brooks - Sompin' The Boogie (a.k.a. Bully Wully Stomp)
TTITLE1=Viola Watkins and The Birmingham Boogie Boys - Boogie Woogie On A Saturd
TTITLE1=ay Night
TTITLE2=Gladys Bentley and Quintette - Boogie'n My Woogie
TTITLE3=Madonna Martin - Madonna's Boogie
TTITLE4=Lil Armstrong and Her Chicago Boys - Joogie Boogie
TTITLE5=Bertice Reading and leroy Kirkland's Orchestra - Beantown Boogie
TTITLE6=Gladys Palmer and Sonny Thompson and The Sharps and Flats - Palmer's Boogie
TTITLE7=Sarah (Fat Woman) Dean and The Freddie Mitchell Orchestra - I got Your B
TTITLE7=oogie
TTITLE8=Nellie Lutcher and The Irving Ashby Trio - Lake Charles Boogie
TTITLE9=Cleo Brown and Nappy Lamere's Trio - Cleo's Boogie
TTITLE10=Helen Humes and The Snooky Young Orchestra - Central Avenue Boogie
TTITLE11=Betty Jean Washington and The Maxwell Davies Orchestra - Elevator Boogi
TTITLE11=e
TTITLE12=Martha Davis and The Art Blakey Trio - Player Piano Boogie
TTITLE13=Big Mama Thornton and The Joe Scott Orchestra - Mischievous Boogie
TTITLE14=Winifred Atwell - Cross Hands Boogie
TTITLE15=Annisteen Allen and The Lucky Millinder Orchestra - Bongo Boogie
TTITLE16=Dorothy Donnegan - Schubert Boogie
TTITLE17=Wini Beaty and The Slim Gaillard Trio - Early Morning Boogie
TTITLE18=Georgia White - Territory Blus
TTITLE19=Merline Johnson - Want To Boogie Some More
TTITLE20=Thelma Gracie and The Freddie Slack Orchestra - Cow Cow Boogie
TTITLE21=Mary Lou Williams and Her Trio - Hesitation Boogie
TTITLE22=Hadda Brooks - Brook's Boogie
TTITLE23=Honey Lee and The Red Callender Trio - Piney's Boogie Woogie
TTITLE24=Edna McRaney - Edna's Boogie
EXTD=
EXTT0=
EXTT1=
EXTT2=
EXTT3=
EXTT4=
EXTT5=
EXTT6=
EXTT7=
EXTT8=
EXTT9=
EXTT10=
EXTT11=
EXTT12=
EXTT13=
EXTT14=
EXTT15=
EXTT16=
EXTT17=
EXTT18=
EXTT19=
EXTT20=
EXTT21=
EXTT22=
EXTT23=
EXTT24=
PLAYORDER=
